<?xml version="1.0" encoding="utf-8"?>
<!-- Generator: Adobe Illustrator 19.0.0, SVG Export Plug-In . SVG Version: 6.00 Build 0)  -->
<svg version="1.1" id="Layer_1" xmlns="http://www.w3.org/2000/svg" xmlns:xlink="http://www.w3.org/1999/xlink" x="0px" y="0px"
	 viewBox="0 0 612 792" style="enable-background:new 0 0 612 792;" xml:space="preserve">
<style type="text/css">
	.st0{fill:url(#XMLID_2_);}
	.st1{fill:url(#XMLID_3_);}
	.st2{fill:url(#XMLID_4_);}
	.st3{fill:url(#XMLID_5_);}
	.st4{fill:url(#XMLID_6_);}
	.st5{fill:url(#XMLID_7_);}
	.st6{fill:url(#XMLID_8_);}
	.st7{fill:url(#XMLID_14_);}
	.st8{fill:url(#XMLID_16_);}
	.st9{fill:url(#XMLID_17_);}
	.st10{fill:#333333;}
	.st11{fill:url(#XMLID_18_);}
	.st12{fill:url(#XMLID_19_);}
	.st13{fill:url(#XMLID_20_);}
	.st14{fill:url(#XMLID_21_);}
	.st15{fill:url(#XMLID_22_);}
</style>
<g id="XMLID_377_">
	<g id="XMLID_422_">
		<linearGradient id="XMLID_2_" gradientUnits="userSpaceOnUse" x1="76.0898" y1="438.9616" x2="76.0898" y2="505.3358">
			<stop  offset="0" style="stop-color:#A058CD"/>
			<stop  offset="1" style="stop-color:#562D7F"/>
		</linearGradient>
		<path id="XMLID_440_" class="st0" d="M111.9,462.6H91.1c0-5.8-5.9-9.5-12.8-9.5c-10.4,0-15.6,5.8-15.6,15.7v6.3
			c0,9.9,5.2,15.7,15.6,15.7c6.9,0,12.8-3.6,12.8-9H75.6V468h36.3v37.9h-11.3l-2.2-6.7c-6.1,5.2-13.9,7.9-24.3,7.9
			c-22.6,0-33.9-12-33.9-35.2c0-23.2,13.5-35.2,37-35.2C96.4,436.8,111.9,445.5,111.9,462.6z"/>
		<linearGradient id="XMLID_3_" gradientUnits="userSpaceOnUse" x1="151.0704" y1="438.9616" x2="151.0704" y2="505.3358">
			<stop  offset="0" style="stop-color:#A058CD"/>
			<stop  offset="1" style="stop-color:#562D7F"/>
		</linearGradient>
		<path id="XMLID_437_" class="st1" d="M180.5,479.8v3.4h-39.1c0,7.2,3,11.4,10.5,11.4c7,0,9.6-3.4,9.6-7.6h19.1
			c0,12.4-9.5,20.2-28.3,20.2c-18.8,0-30.5-8.5-30.5-27.3c0-18.3,11.6-27.3,29.3-27.3C169.8,452.6,180.5,461.1,180.5,479.8z
			 M141.4,473.9h19.2c0-5.4-3.3-8.8-8.8-8.8C145.2,465.1,142.1,468.5,141.4,473.9z"/>
		<linearGradient id="XMLID_4_" gradientUnits="userSpaceOnUse" x1="216.9625" y1="438.9616" x2="216.9625" y2="505.3358">
			<stop  offset="0" style="stop-color:#A058CD"/>
			<stop  offset="1" style="stop-color:#562D7F"/>
		</linearGradient>
		<path id="XMLID_434_" class="st2" d="M246.4,479.8c0,18.3-11.7,27.3-29.4,27.3c-17.8,0-29.3-9-29.3-27.3
			c0-18.3,11.6-27.3,29.3-27.3C234.7,452.6,246.4,461.6,246.4,479.8z M207.2,477.1v5.6c0,6.9,2.8,11.1,9.7,11.1
			c6.9,0,9.8-4.1,9.8-11.1v-5.6c0-6.9-2.9-11.2-9.8-11.2C210,465.9,207.2,470.2,207.2,477.1z"/>
		<linearGradient id="XMLID_5_" gradientUnits="userSpaceOnUse" x1="318.2687" y1="438.9616" x2="318.2687" y2="505.3358">
			<stop  offset="0" style="stop-color:#A058CD"/>
			<stop  offset="1" style="stop-color:#562D7F"/>
		</linearGradient>
		<path id="XMLID_432_" class="st3" d="M351.5,455.3h-22.2v50.6h-21.8v-50.6h-22.3V438h66.4V455.3z"/>
		<linearGradient id="XMLID_6_" gradientUnits="userSpaceOnUse" x1="380.3588" y1="438.9616" x2="380.3588" y2="505.3358">
			<stop  offset="0" style="stop-color:#A058CD"/>
			<stop  offset="1" style="stop-color:#562D7F"/>
		</linearGradient>
		<path id="XMLID_428_" class="st4" d="M409.7,479.8c0,18.3-11.7,27.3-29.4,27.3c-17.8,0-29.3-9-29.3-27.3
			c0-18.3,11.6-27.3,29.3-27.3C398.1,452.6,409.7,461.6,409.7,479.8z M370.6,477.1v5.6c0,6.9,2.8,11.1,9.7,11.1
			c6.9,0,9.8-4.1,9.8-11.1v-5.6c0-6.9-2.9-11.2-9.8-11.2C373.4,465.9,370.6,470.2,370.6,477.1z"/>
		<linearGradient id="XMLID_7_" gradientUnits="userSpaceOnUse" x1="486.4576" y1="438.9616" x2="486.4576" y2="505.3358">
			<stop  offset="0" style="stop-color:#A058CD"/>
			<stop  offset="1" style="stop-color:#562D7F"/>
		</linearGradient>
		<path id="XMLID_426_" class="st5" d="M522.3,462.6h-20.8c0-5.8-5.9-9.5-12.8-9.5c-10.4,0-15.6,5.8-15.6,15.7v6.3
			c0,9.9,5.2,15.7,15.6,15.7c6.9,0,12.8-3.6,12.8-9H486V468h36.3v37.9H511l-2.2-6.7c-6.1,5.2-13.9,7.9-24.3,7.9
			c-22.6,0-33.9-12-33.9-35.2c0-23.2,13.5-35.2,37-35.2C506.8,436.8,522.3,445.5,522.3,462.6z"/>
		<linearGradient id="XMLID_8_" gradientUnits="userSpaceOnUse" x1="561.4373" y1="438.9616" x2="561.4373" y2="505.3358">
			<stop  offset="0" style="stop-color:#A058CD"/>
			<stop  offset="1" style="stop-color:#562D7F"/>
		</linearGradient>
		<path id="XMLID_423_" class="st6" d="M590.8,479.8c0,18.3-11.7,27.3-29.4,27.3c-17.8,0-29.3-9-29.3-27.3
			c0-18.3,11.6-27.3,29.3-27.3C579.2,452.6,590.8,461.6,590.8,479.8z M551.7,477.1v5.6c0,6.9,2.8,11.1,9.7,11.1
			c6.9,0,9.8-4.1,9.8-11.1v-5.6c0-6.9-2.9-11.2-9.8-11.2C554.5,465.9,551.7,470.2,551.7,477.1z"/>
	</g>
	<g id="XMLID_379_">
		<g id="XMLID_415_">
			<g id="XMLID_419_">
				<g id="XMLID_420_">
					<linearGradient id="XMLID_14_" gradientUnits="userSpaceOnUse" x1="329.7419" y1="134.8695" x2="329.7419" y2="413.1617">
						<stop  offset="0" style="stop-color:#FF8D00"/>
						<stop  offset="1" style="stop-color:#D63000"/>
					</linearGradient>
					<path id="XMLID_421_" class="st7" d="M455,280.4c-1.6,49.2-29.4,94.4-72.4,118c-60.6,33.2-136.6,16.8-178.1-38l9.8-19
						c33.9,52.6,103.5,70.9,159.3,40.4c37-20.3,60.4-57.6,62.5-99.8l0.3-5.1l-19.4,0.8l28-54.2C452.1,241.5,455.6,261,455,280.4z"/>
				</g>
			</g>
			<g id="XMLID_416_">
				<g id="XMLID_417_">
					<linearGradient id="XMLID_16_" gradientUnits="userSpaceOnUse" x1="301.3328" y1="134.8695" x2="301.3328" y2="413.1617">
						<stop  offset="0" style="stop-color:#FF8D00"/>
						<stop  offset="1" style="stop-color:#D63000"/>
					</linearGradient>
					<path id="XMLID_418_" class="st8" d="M426.6,191.5l-9.8,19c-33.9-52.6-103.5-70.8-159.2-40.3c-37,20.3-60.4,57.6-62.5,99.8
						l-0.2,5.1l19.4-0.8l-28,54.2c-7.3-17.9-10.8-37.4-10.1-56.8c1.6-49.2,29.4-94.4,72.4-118c21.1-11.6,44.1-17.1,66.8-17.1
						C357.9,136.4,399.6,155.8,426.6,191.5z"/>
				</g>
			</g>
		</g>
		<linearGradient id="XMLID_17_" gradientUnits="userSpaceOnUse" x1="361.029" y1="191.6875" x2="361.029" y2="362.1897">
			<stop  offset="0" style="stop-color:#499823"/>
			<stop  offset="1" style="stop-color:#AEE84E"/>
		</linearGradient>
		<path id="XMLID_414_" class="st9" d="M378.5,267.4c0.3,2.3,2.4,4,4.6,4.8c2.2,0.8,4.5,0.8,6.8,1.1c0.7,0.1,1.5,0.3,2.2,0.7
			c0.7,0.5,1.2,1.4,1.5,2.2c2.6,6.1,3.1,13.1,1.4,19.5c-0.6,2.4-1.6,4.9-1.4,7.4c0.4,4.1,3.8,7.1,5.5,10.8c1.6,3.4,1.6,7,1.1,10.8
			l0,0c-7.3,12.6-17.2,23.3-29.1,31.5c0.1-6.4-0.2-12.8-2.1-19c-2.3-7.6-7.5-14.8-15-17.4c-4.8-1.6-10.5-1.5-14.3-4.9
			c-2-1.8-3.3-4.4-5.6-5.6c-1.6-0.9-3.5-1-5.3-1.1c-6.4-0.6-13.4-3-16.5-8.7c-2.9-5.2-1.7-11.7,0.1-17.3c1.9-5.6,4.4-11.3,4-17.3
			c-0.2-2.5-0.8-5.3,0.8-7.3c0.6-0.9,1.6-1.5,2.5-2c4.2-2.5,9-2,13.2-4.5c4.2,2,9.6,0.9,12,4.9c0.8,1.2,1.3,2.7,2.2,3.8
			c1.8,2.4,4.9,3.6,7.9,4.5c1,0.3,2,0.6,3,0.4c2.2-0.4,3.5-2.9,3.5-5.2c0.1-6.8-6.7-11.8-13.4-13c-6.7-1.2-13.5,0-20.3-0.8
			c-2.7-0.3-5.4-1-7.5-2.7c-2.1-1.7-3.4-4.6-2.6-7.1c1.5-4.7,8.2-5.1,11.7-8.6c1.4-1.4,2.2-3.2,3.1-4.9c3.3-5.9,8.4-10.4,13.4-14.8
			c1.7-1.5,3.5-3.1,5.6-4c2.3-1,4.8-1.3,7-2.4c3.6-1.8,5.6-5.5,6.9-9.4h0c12.3,7.4,22.9,17.3,31,29.2v0c-2.4,4.9-5.8,9.2-10.1,12.5
			c-0.3,0.3-0.6,0.5-0.8,0.8c-0.3,0.8,0.4,1.7,1.2,2.2c3.3,2.2,7.5,2.2,11.4,2.2c2.6,0,5.1-0.1,7.7-0.2c2.6,6.3,4.6,12.9,5.8,19.8
			c-1.6,0.7-3.2,1.4-4.8,1.9c-4,1.4-8.4,2.1-12.7,1.8c-2.9-0.2-5.8-0.7-8.7-0.3C382.6,262.3,378.1,264.5,378.5,267.4z"/>
		<path id="XMLID_410_" class="st10" d="M371.1,360.7c-0.7,0-1.4-0.2-2.1-0.5c-1.5-0.8-2.4-2.3-2.4-4c0.1-5.5-0.1-11.8-1.9-17.6
			c-2.2-7.2-6.7-12.6-12.2-14.5c-1.3-0.5-2.9-0.8-4.5-1.1c-3.7-0.8-7.9-1.6-11.4-4.7c-1-0.9-1.9-1.9-2.6-2.8c-0.8-1-1.5-1.8-2.2-2.2
			c-0.7-0.3-1.8-0.5-3.1-0.6l-0.6-0.1c-9.5-0.9-16.6-4.8-20-11c-3-5.4-3.1-12.2-0.2-20.9c0.3-1,0.7-2,1.1-3.1
			c1.5-4.4,3-8.5,2.8-12.5c0-0.4-0.1-0.8-0.1-1.1c-0.2-2.6-0.6-6.1,1.8-9.1c1.1-1.6,2.7-2.5,3.8-3.2c2-1.2,3.9-1.8,5.8-2.3
			c-1.9-0.5-3.9-1.4-5.7-2.9c-3.7-3-5.3-7.8-4-11.9c1.5-4.7,5.6-6.5,8.8-8c1.6-0.8,3.2-1.5,4-2.3c0.6-0.6,1.1-1.6,1.7-2.7
			c0.2-0.4,0.4-0.8,0.7-1.2c3.7-6.6,9.3-11.6,14.4-16c1.7-1.6,3.9-3.5,6.7-4.7c1.3-0.6,2.7-1,3.9-1.3c1.1-0.3,2.1-0.6,2.9-1
			c1.9-1,3.4-3.2,4.7-6.8c0.6-1.8,2.3-3,4.2-3c0.8,0,1.6,0.2,2.3,0.6c12.8,7.6,24,18.2,32.4,30.5c0.5,0.7,0.8,1.6,0.8,2.5
			c0,0.7-0.2,1.4-0.5,2c-2,4.1-4.7,7.8-7.9,11c1.3,0.2,2.8,0.3,4.5,0.3l1,0c2.5,0,4.9-0.1,7.4-0.2c1.9-0.1,3.8,1,4.5,2.7
			c2.8,6.6,4.8,13.6,6.1,20.7c0.4,2.1-0.7,4.1-2.7,4.9l-0.9,0.4c-1.4,0.6-2.7,1.2-4.1,1.6c-4.6,1.6-9.5,2.3-14.4,2.1
			c-1-0.1-1.9-0.1-2.9-0.2c-1.7-0.2-3.4-0.4-5.1-0.1c-0.9,0.1-2,0.6-2.6,1c0.3,0.2,0.7,0.4,1.1,0.6c1,0.4,2.4,0.5,3.8,0.6
			c0.7,0.1,1.4,0.1,2.1,0.2c1.1,0.1,2.7,0.5,4.1,1.5c1.7,1.2,2.6,3,3.1,4.2c3,7,3.5,15,1.6,22.4c-0.1,0.5-0.3,1-0.4,1.6
			c-0.5,1.6-0.9,3.1-0.8,4.2c0.1,1.4,1.2,3,2.4,4.8c0.9,1.3,1.9,2.9,2.7,4.6c2.2,4.9,1.9,9.9,1.5,13.2c-0.1,0.7-0.3,1.4-0.7,2
			c-7.5,12.9-18,24.2-30.2,32.7C372.9,360.5,372,360.7,371.1,360.7z M333,256.1c-2.1,0.9-4.1,1.3-5.9,1.7c-2,0.4-3.8,0.8-5.3,1.7
			c-0.4,0.2-1,0.6-1.2,0.8c-0.3,0.5-0.1,2,0,3c0,0.5,0.1,1,0.1,1.4c0.3,5.8-1.5,11-3.3,16.1c-0.3,1-0.7,1.9-1,2.9
			c-2,6.1-2.1,10.6-0.4,13.7c2.7,4.9,10,6.1,13,6.4l0.6,0.1c1.9,0.2,4.2,0.4,6.4,1.6c2.2,1.2,3.7,3,4.9,4.4c0.6,0.7,1.1,1.4,1.6,1.8
			c1.6,1.5,4.2,2,7.2,2.6c1.8,0.4,3.7,0.8,5.6,1.4c8.2,2.8,14.9,10.4,17.9,20.3c1.2,3.8,1.8,7.7,2,11.4c8.1-6.8,15.1-15,20.5-24.2
			c0.3-3.1,0-5.4-0.9-7.4c-0.5-1-1.2-2.1-2-3.3c-1.6-2.5-3.5-5.3-3.9-8.9c-0.3-2.9,0.5-5.4,1.1-7.6c0.1-0.5,0.3-0.9,0.4-1.4
			c1.5-5.5,1-11.4-1.2-16.6c0-0.1-0.1-0.2-0.1-0.2c0,0,0,0,0,0c-0.6-0.1-1.2-0.1-1.8-0.2c-1.8-0.2-3.9-0.4-5.9-1.1
			c-4.1-1.5-7-4.7-7.5-8.4c-0.3-1.9,0.2-3.8,1.5-5.5c2.1-2.8,6.2-4.6,9.3-5c2.5-0.3,4.9-0.1,7.1,0.1c0.8,0.1,1.6,0.2,2.5,0.2
			c3.6,0.2,7.5-0.4,10.9-1.6c0.4-0.1,0.8-0.3,1.2-0.4c-0.9-4.3-2.2-8.4-3.7-12.5c-1.6,0.1-3.1,0.1-4.7,0.1l-1.1,0
			c-4.3,0-8.9-0.4-12.8-2.9c-2.8-1.8-4-4.9-2.9-7.7c0.6-1.4,1.6-2.2,2.1-2.6c3-2.4,5.6-5.4,7.6-8.7c-6.5-8.9-14.6-16.8-23.7-22.9
			c-1.8,3.2-4.1,5.4-6.9,6.8c-1.6,0.8-3.1,1.2-4.5,1.6c-1,0.3-1.9,0.5-2.6,0.9c-1.5,0.7-3.1,2-4.4,3.3c-4.7,4.1-9.5,8.4-12.5,13.7
			l-0.6,1.1c-0.8,1.5-1.7,3.2-3.2,4.8c-2,2-4.5,3.2-6.6,4.2c-1.8,0.9-3.7,1.7-4,2.7c-0.2,0.5,0.3,1.6,1.1,2.2
			c1.1,0.9,2.7,1.4,5.2,1.7c1.6,0.2,3.3,0.3,5.5,0.3c1,0,2.1,0,3.1,0c1.1,0,2.2,0,3.3,0c2.4,0,5.5,0.1,8.7,0.7
			c8.6,1.6,17.2,8.1,17.1,17.5c-0.1,4.1-2.5,8.7-7.2,9.5c-0.6,0.1-1,0.1-1.4,0.1c-1.4,0-2.7-0.3-3.8-0.7c-3.5-1.1-7.5-2.6-10.1-6
			c-0.8-1-1.3-2-1.7-3c-0.2-0.4-0.4-0.8-0.7-1.2c-0.5-0.8-1.6-1-4-1.5C335.7,256.8,334.4,256.5,333,256.1z M346,250.9
			c1,0.7,1.8,1.7,2.6,2.9c0.3,0.6,0.7,1.2,1,1.9c0.3,0.6,0.6,1.2,0.9,1.6c1,1.4,3.3,2.2,5.6,2.9c0.2,0.1,0.4,0.1,0.6,0.2
			c0.1-0.2,0.1-0.4,0.1-0.7c0.1-4.1-5-7.6-9.7-8.5C346.8,251,346.4,251,346,250.9z"/>
		<linearGradient id="XMLID_18_" gradientUnits="userSpaceOnUse" x1="255.4577" y1="191.6875" x2="255.4577" y2="362.1897">
			<stop  offset="0" style="stop-color:#499823"/>
			<stop  offset="1" style="stop-color:#AEE84E"/>
		</linearGradient>
		<path id="XMLID_409_" class="st11" d="M287.7,217.4c-2.7,1.2-6.1,1.3-7.8,3.6c-1.8,2.5-0.6,6,0.4,8.9c1,2.9,1.1,7-1.7,8.3
			c-2.2,1.1-5-0.3-7.3,0.5c-1.7,0.6-2.8,2.4-4,3.8c-5,5.7-14.8,6.3-18.2,13.1c-1.5,3-1.4,6.5-1.6,9.9c-0.3,4-1.3,7.9-2.9,11.6
			c-0.3,0.7-0.6,1.4-1.2,1.8c-1.3,1-3.2,0.4-4.5-0.5c-3.7-2.5-6.9-7.5-11.3-6.4c-4.2,1-5,6.9-3.2,10.8c1.8,3.9,7.4,7.2,10.2,10.5
			c4.9,5.8,0,16.1-8.6,21.3c-5.1-11.9-8-24.9-8-38.7c0-40.1,24.2-74.6,58.7-89.6c-1.5,4.3,0.5,9.2,3.7,12.3c3.3,3.2,7.7,5,12,6.8
			C294.2,209.8,292,215.5,287.7,217.4z"/>
		<path id="XMLID_405_" class="st10" d="M225.9,319.1c-0.5,0-0.9-0.1-1.4-0.2c-1.2-0.4-2.2-1.3-2.8-2.5c-5.5-12.8-8.3-26.4-8.3-40.4
			c0-40.7,24.1-77.5,61.4-93.7c1.6-0.7,3.6-0.4,4.9,0.8c1.3,1.2,1.8,3.1,1.2,4.8c-0.8,2.2,0.3,5.3,2.6,7.6c2.7,2.6,6.4,4.1,10.4,5.7
			c1.1,0.4,2.1,1.4,2.6,2.5c2.8,6.6-0.5,14.9-7,17.8c-1.1,0.5-2.3,0.9-3.4,1.2c-0.9,0.3-2.4,0.7-2.6,1c-0.4,0.5,0.6,3.5,1,4.6
			c0,0,0.1,0.3,0.1,0.3c2,6.2,0.4,11.6-4,13.8c-1.7,0.8-3.9,1-6.1,0.8c-0.6-0.1-1.5-0.1-1.5-0.1c-0.2,0.1-0.8,0.9-1.2,1.3
			c-0.3,0.4-0.7,0.8-1,1.2c-2.8,3.2-6.6,5-9.9,6.6c-3.4,1.7-6.4,3.1-7.6,5.5c-0.8,1.5-0.9,3.7-1,6c0,0.8-0.1,1.5-0.2,2.3
			c-0.4,4.6-1.5,8.9-3.3,13c-0.4,1-1.2,2.5-2.7,3.6c-1.2,0.9-2.7,1.4-4.3,1.4c-2.2,0-4.2-0.9-5.4-1.7c-1.4-1-2.6-2-3.7-3.1
			c-1.3-1.2-3.1-2.8-3.9-2.8c-0.7,0.3-1.2,2.6-0.3,4.5c0.7,1.5,3,3.4,5,5.2c1.6,1.4,3.3,2.8,4.5,4.3c2.5,3,3.5,6.9,2.8,11.1
			c-1.1,6.5-5.9,13-12.6,17C227.5,318.9,226.7,319.1,225.9,319.1z M223.3,289c0.9,6.2,2.4,12.4,4.5,18.3c2.2-2.3,3.7-4.9,4.1-7.3
			c0.3-1.6,0-2.9-0.8-3.8c-0.8-1-2.1-2.1-3.5-3.3C226.1,291.7,224.6,290.5,223.3,289z M228.7,267.4c4.3,0,7.4,2.8,9.9,5.1
			c0.8,0.7,1.5,1.4,2.2,1.9c1.2-3,1.9-6.1,2.2-9.3c0.1-0.7,0.1-1.3,0.1-2c0.2-3,0.4-6.3,2-9.5c2.6-5.1,7.5-7.5,11.7-9.5
			c2.8-1.4,5.5-2.6,7.1-4.5c0.3-0.3,0.5-0.6,0.7-0.9c1.1-1.4,2.6-3.3,5.1-4.2c1.5-0.6,3.4-0.6,5.4-0.5c0.4,0,0.8,0.1,1.1,0.1
			c0.1-0.6,0-1.6-0.4-2.9c-1.2-3.6-2.9-8.6,0.2-12.9c2.1-2.8,5.2-3.7,7.4-4.4c0.8-0.2,1.6-0.5,2.2-0.7c1.6-0.7,2.7-2.7,2.7-4.5
			c-3.9-1.6-8-3.6-11.3-6.8c-2.5-2.5-4.2-5.4-5-8.4c-28.6,15-47.4,43.9-49.6,76.1c1.1-1,2.4-1.6,3.9-2
			C227.2,267.5,227.9,267.4,228.7,267.4z"/>
		<linearGradient id="XMLID_19_" gradientUnits="userSpaceOnUse" x1="261.0524" y1="191.6875" x2="261.0524" y2="362.1897">
			<stop  offset="0" style="stop-color:#499823"/>
			<stop  offset="1" style="stop-color:#AEE84E"/>
		</linearGradient>
		<path id="XMLID_404_" class="st12" d="M283.8,344.4c-0.6,3.5-2.7,6.5-4.7,9.4c-2.3,3.2-4.5,6.5-6.8,9.7
			c-15.3-7.6-28.4-19.1-37.9-33.1c4.6-2.2,9.5-5,10.8-10c0.7-2.8,0.1-5.8,1.5-8.3c0.9-1.6,2.4-2.6,3.7-3.9c2-2.1,3.2-4.9,5.5-6.6
			c3.8-2.7,9.2-1.4,13,1.2c3.8,2.6,6.8,6.3,10.6,8.9c3,2.1,6.8,3.8,7.8,7.3c1.3,4.3-2.4,8.4-3.4,12.8
			C283,335.9,284.5,340.3,283.8,344.4z"/>
		<path id="XMLID_401_" class="st10" d="M272.4,368c-0.7,0-1.4-0.2-2-0.5c-16-7.9-29.7-19.9-39.6-34.7c-0.7-1.1-1-2.4-0.6-3.7
			c0.3-1.3,1.2-2.3,2.4-2.9c3.9-1.9,7.6-4,8.4-7c0.2-0.7,0.2-1.6,0.3-2.6c0.1-2,0.3-4.4,1.6-6.8c1-1.7,2.3-2.9,3.3-3.9
			c0.4-0.3,0.7-0.6,1-1c0.5-0.6,1.1-1.3,1.6-2.2c1.2-1.7,2.5-3.6,4.6-5c4.8-3.4,12.2-2.9,18.1,1.1c2.2,1.5,4.1,3.3,5.9,5
			c1.6,1.5,3.1,2.9,4.7,4c0.5,0.3,1.1,0.7,1.6,1c3,1.9,6.7,4.2,8,8.7c1.3,4.3-0.5,8.2-1.9,11.3c-0.6,1.4-1.2,2.6-1.4,3.8
			c-0.3,1.5-0.2,3.3,0,5.3c0.2,2.2,0.4,4.6-0.1,7.1c-0.8,4.6-3.4,8.3-5.5,11.2l-6.8,9.7C275.2,367.3,273.8,368,272.4,368z
			 M241.1,332c8,10.6,18.2,19.4,29.8,25.8l4.5-6.5c1.7-2.3,3.5-5,4-7.6c0.2-1.4,0.1-3.1,0-4.9c-0.2-2.4-0.4-5.1,0.2-7.9
			c0.5-2,1.3-3.9,2-5.5c0.9-2,1.8-3.9,1.4-5.1c-0.4-1.2-2.3-2.5-4.2-3.7c-0.6-0.4-1.3-0.8-1.9-1.2c-2.2-1.5-4-3.2-5.7-4.8
			c-1.6-1.5-3.2-3-4.8-4.1c-2.7-1.9-6.2-2.5-7.9-1.2c-0.8,0.6-1.5,1.6-2.4,2.8c-0.7,1-1.5,2.1-2.4,3.2c-0.5,0.5-1,1-1.5,1.5
			c-0.7,0.6-1.3,1.2-1.5,1.6c-0.3,0.6-0.4,1.8-0.5,3c-0.1,1.3-0.2,2.7-0.5,4.2C248.4,326.5,244.6,329.8,241.1,332z"/>
		<g id="XMLID_390_">
			<linearGradient id="XMLID_20_" gradientUnits="userSpaceOnUse" x1="394.985" y1="178.8916" x2="397.1591" y2="371.0871">
				<stop  offset="0" style="stop-color:#19C2D9"/>
				<stop  offset="1" style="stop-color:#562D7F"/>
			</linearGradient>
			<path id="XMLID_398_" class="st13" d="M405.8,238.7c-2.6,0.1-5.1,0.2-7.7,0.2c-3.9,0-8.1,0-11.4-2.2c-0.8-0.5-1.5-1.4-1.2-2.2
				c0.2-0.3,0.4-0.6,0.8-0.8c4.2-3.4,7.7-7.7,10.1-12.5C400.1,226.7,403.3,232.5,405.8,238.7z"/>
			<g id="XMLID_391_">
				<linearGradient id="XMLID_21_" gradientUnits="userSpaceOnUse" x1="295.7207" y1="180.0145" x2="297.8948" y2="372.21">
					<stop  offset="0" style="stop-color:#19C2D9"/>
					<stop  offset="1" style="stop-color:#562D7F"/>
				</linearGradient>
				<path id="XMLID_395_" class="st14" d="M371.1,356.2c-15.8,10.9-34.9,17.3-55.6,17.3c-15.5,0-30.2-3.6-43.2-10.1
					c2.3-3.2,4.5-6.5,6.8-9.7c2-2.9,4.1-5.9,4.7-9.4c0.7-4.2-0.8-8.5,0.1-12.6c1-4.4,4.7-8.5,3.4-12.8c-1-3.5-4.8-5.3-7.8-7.3
					c-3.8-2.6-6.8-6.3-10.6-8.9c-3.8-2.6-9.2-3.9-13-1.2c-2.3,1.6-3.6,4.5-5.5,6.6c-1.2,1.3-2.8,2.3-3.7,3.9
					c-1.4,2.5-0.8,5.6-1.5,8.3c-1.2,4.9-6.2,7.8-10.8,10c-3.3-4.9-6.2-10.2-8.6-15.8c8.6-5.2,13.6-15.5,8.6-21.3
					c-2.8-3.3-8.4-6.6-10.2-10.5c-1.8-3.9-0.9-9.8,3.2-10.8c4.4-1,7.5,3.9,11.3,6.4c1.4,0.9,3.2,1.5,4.5,0.5c0.6-0.4,1-1.1,1.2-1.8
					c1.6-3.6,2.6-7.6,2.9-11.6c0.3-3.4,0.1-6.9,1.6-9.9c3.4-6.8,13.2-7.4,18.2-13.1c1.2-1.4,2.3-3.2,4-3.8c2.3-0.9,5,0.5,7.3-0.5
					c2.8-1.4,2.6-5.4,1.7-8.3c-1-2.9-2.2-6.4-0.4-8.9c1.7-2.3,5.1-2.4,7.8-3.6c4.3-1.9,6.5-7.5,4.7-11.9c-4.3-1.7-8.7-3.5-12-6.8
					c-3.2-3.2-5.2-8.1-3.7-12.3h0c11.9-5.2,25.1-8.1,38.9-8.1c18.2,0,35.2,5,49.8,13.7c-1.3,3.9-3.3,7.6-6.9,9.4
					c-2.2,1.1-4.7,1.4-7,2.4c-2.1,0.9-3.9,2.5-5.6,4c-5,4.4-10.1,9-13.4,14.8c-1,1.7-1.7,3.5-3.1,4.9c-3.5,3.5-10.2,3.9-11.7,8.6
					c-0.8,2.5,0.5,5.4,2.6,7.1c2.1,1.7,4.8,2.4,7.5,2.7c6.7,0.8,13.6-0.4,20.3,0.8c6.7,1.2,13.5,6.2,13.4,13c0,2.3-1.3,4.8-3.5,5.2
					c-1,0.2-2.1-0.1-3-0.4c-2.9-0.9-6-2-7.9-4.5c-0.9-1.2-1.4-2.6-2.2-3.8c-0.5-0.8-1.1-1.5-1.8-2.2c-4.9-4.5-12.5-4.8-18.2-1.4
					c-1.7,1-3.5,2.1-5.2,3.1c-0.9,0.5-1.9,1.1-2.5,2c-1.5,2-0.9,4.8-0.8,7.3c0.3,5.9-2.2,11.6-4,17.3c-1.8,5.6-3,12.1-0.1,17.3
					c3.1,5.7,10.1,8.1,16.5,8.7c1.8,0.2,3.7,0.3,5.3,1.1c2.3,1.2,3.6,3.8,5.6,5.6c3.8,3.4,9.5,3.2,14.3,4.9
					c7.5,2.6,12.7,9.8,15,17.4C370.9,343.4,371.2,349.8,371.1,356.2z"/>
				<linearGradient id="XMLID_22_" gradientUnits="userSpaceOnUse" x1="394.7851" y1="178.8939" x2="396.9592" y2="371.0894">
					<stop  offset="0" style="stop-color:#19C2D9"/>
					<stop  offset="1" style="stop-color:#562D7F"/>
				</linearGradient>
				<path id="XMLID_392_" class="st15" d="M400.2,324.7c0.5-3.7,0.4-7.3-1.1-10.8c-1.7-3.7-5.1-6.8-5.5-10.8
					c-0.2-2.5,0.7-4.9,1.4-7.4c1.7-6.4,1.2-13.4-1.4-19.5c-0.3-0.9-0.8-1.7-1.5-2.2c-0.6-0.4-1.4-0.6-2.2-0.7
					c-2.3-0.3-4.7-0.3-6.8-1.1c-2.2-0.8-4.3-2.5-4.6-4.8c-0.4-2.9,4.1-5,7-5.5c2.9-0.4,5.8,0.2,8.7,0.3c4.3,0.2,8.6-0.4,12.7-1.8
					c1.6-0.6,3.2-1.3,4.8-1.9c1,5.7,1.6,11.5,1.6,17.5C413.2,293.7,408.5,310.4,400.2,324.7z"/>
			</g>
		</g>
		<path id="XMLID_386_" class="st10" d="M315.6,378.1c-15.9,0-31.1-3.5-45.2-10.5c-1.2-0.6-2-1.6-2.4-2.9c-0.3-1.3-0.1-2.6,0.7-3.7
			l6.8-9.7c1.7-2.3,3.5-5,4-7.6c0.2-1.4,0.1-3.1,0-4.9c-0.2-2.4-0.4-5.1,0.2-7.9c0.5-2,1.3-3.9,2-5.5c0.9-2,1.8-3.9,1.4-5.1
			c-0.4-1.2-2.3-2.5-4.2-3.7c-0.6-0.4-1.3-0.8-1.9-1.2c-2.2-1.5-4-3.2-5.7-4.8c-1.6-1.5-3.2-3-4.8-4.1c-2.8-1.9-6.2-2.5-7.9-1.2
			c-0.8,0.6-1.5,1.6-2.4,2.8c-0.7,1-1.5,2.1-2.4,3.2c-0.5,0.5-1,1-1.5,1.5c-0.7,0.6-1.3,1.2-1.5,1.6c-0.3,0.6-0.4,1.8-0.5,3
			c-0.1,1.3-0.2,2.7-0.5,4.2c-1.9,7.5-9.5,11.2-13.2,12.9c-2,1-4.4,0.3-5.7-1.5c-3.5-5.2-6.5-10.7-9-16.5c-0.9-2.1-0.1-4.5,1.8-5.6
			c4.4-2.6,7.7-7,8.3-10.8c0.3-1.6,0-2.9-0.8-3.8c-0.8-1-2.1-2.1-3.5-3.3c-2.7-2.3-5.8-4.9-7.3-8.2c-1.7-3.8-1.7-8.4,0-11.9
			c1.3-2.7,3.6-4.5,6.3-5.1c0.7-0.2,1.4-0.2,2.2-0.2c4.3,0,7.4,2.8,9.9,5.1c0.8,0.7,1.5,1.4,2.2,1.9c1.2-3,1.9-6.1,2.2-9.3
			c0.1-0.7,0.1-1.3,0.1-2c0.2-3,0.4-6.3,2-9.5c2.6-5.1,7.5-7.5,11.7-9.5c2.8-1.4,5.5-2.6,7.1-4.5c0.3-0.3,0.5-0.6,0.7-0.9
			c1.1-1.4,2.6-3.3,5.1-4.2c1.5-0.6,3.4-0.6,5.4-0.5c0.4,0,0.8,0.1,1.1,0.1c0.1-0.6,0-1.6-0.4-2.9c-1.2-3.6-2.9-8.6,0.2-12.9
			c2.1-2.8,5.2-3.7,7.4-4.4c0.8-0.2,1.6-0.5,2.2-0.7c1.6-0.7,2.7-2.7,2.7-4.5c-3.9-1.6-8-3.6-11.3-6.8c-4.9-4.8-6.8-11.5-4.8-17.1
			c0.5-1.3,1.5-2.3,2.8-2.7c12.8-5.5,26.4-8.3,40.4-8.3c18.4,0,36.4,4.9,52.1,14.3c1.8,1.1,2.6,3.3,2,5.3c-2,6-5,9.9-9.1,11.9
			c-1.6,0.8-3.1,1.2-4.5,1.6c-1,0.3-1.9,0.5-2.6,0.9c-1.5,0.7-3.1,2-4.4,3.3c-4.7,4.1-9.5,8.4-12.5,13.7l-0.6,1.1
			c-0.8,1.5-1.7,3.2-3.2,4.8c-2,2-4.5,3.2-6.6,4.2c-1.8,0.9-3.7,1.7-4,2.7c-0.2,0.5,0.3,1.6,1.1,2.2c1.1,0.9,2.7,1.4,5.2,1.7
			c1.6,0.2,3.3,0.3,5.5,0.3c1,0,2.1,0,3.1,0c1.1,0,2.2,0,3.3,0c2.4,0,5.5,0.1,8.7,0.7c8.6,1.6,17.2,8.1,17.1,17.5
			c-0.1,4.1-2.5,8.7-7.2,9.5c-0.6,0.1-1,0.1-1.4,0.1c-1.4,0-2.7-0.3-3.8-0.7c-3.5-1.1-7.5-2.6-10.1-6c-0.8-1-1.3-2-1.7-3
			c-0.2-0.4-0.4-0.8-0.7-1.2c-0.3-0.4-0.6-0.8-1-1.2c-3.2-3-8.7-3.3-12.8-0.8l-5.2,3.1c-0.4,0.2-1,0.6-1.2,0.8c-0.3,0.5-0.1,2,0,3
			c0,0.5,0.1,1,0.1,1.4c0.3,5.8-1.5,11-3.3,16.1c-0.3,1-0.7,1.9-1,2.9c-2,6.1-2.1,10.6-0.4,13.7c2.7,4.9,10,6.1,13,6.4l0.6,0.1
			c1.9,0.2,4.2,0.4,6.4,1.6c2.2,1.2,3.7,3,4.9,4.4c0.6,0.7,1.1,1.4,1.6,1.8c1.6,1.5,4.2,2,7.2,2.6c1.8,0.4,3.7,0.8,5.6,1.4
			c8.2,2.8,14.9,10.4,17.9,20.3c2.1,6.9,2.3,14.2,2.3,20.3c0,1.5-0.7,2.8-1.9,3.6C356.6,371.8,336.5,378.1,315.6,378.1z
			 M279.1,361.7c11.5,4.9,23.7,7.4,36.4,7.4c18.3,0,35.9-5.3,51.1-15.2c0-4.9-0.4-10.3-1.9-15.3c-2.2-7.2-6.7-12.6-12.2-14.5
			c-1.3-0.5-2.9-0.8-4.5-1.1c-3.7-0.8-7.9-1.6-11.4-4.7c-1-0.9-1.9-1.9-2.6-2.8c-0.8-1-1.5-1.8-2.2-2.2c-0.7-0.3-1.8-0.5-3.1-0.6
			l-0.6-0.1c-9.5-0.9-16.6-4.8-20-11c-3-5.4-3.1-12.2-0.2-20.9c0.3-1,0.7-2,1.1-3.1c1.5-4.4,3-8.5,2.8-12.5c0-0.4-0.1-0.8-0.1-1.1
			c-0.2-2.6-0.6-6.1,1.8-9.1c1.1-1.6,2.7-2.5,3.8-3.2l4.5-2.7c-1.5-0.5-3-1.3-4.4-2.5c-3.7-3-5.3-7.8-4-11.9c1.5-4.7,5.6-6.5,8.8-8
			c1.6-0.8,3.2-1.5,4-2.3c0.6-0.6,1.1-1.6,1.7-2.7c0.2-0.4,0.4-0.8,0.7-1.2c3.7-6.6,9.3-11.6,14.4-16c1.7-1.6,3.9-3.5,6.7-4.7
			c1.3-0.6,2.7-1,3.9-1.3c1.1-0.3,2.1-0.6,2.9-1c1.3-0.6,2.3-1.8,3.2-3.5c-13.5-7.3-28.7-11.1-44.1-11.1c-12.1,0-23.8,2.3-34.9,6.8
			c0.1,1.9,1.1,4.2,2.9,5.9c2.7,2.6,6.4,4.1,10.4,5.7c1.1,0.4,2.1,1.4,2.6,2.5c2.8,6.6-0.5,14.9-7,17.8c-1.1,0.5-2.3,0.9-3.4,1.2
			c-0.9,0.3-2.4,0.7-2.6,1c-0.4,0.5,0.6,3.5,1,4.6c0,0,0.1,0.3,0.1,0.3c2,6.2,0.4,11.6-4,13.8c-1.7,0.8-3.9,1-6.1,0.8
			c-0.6-0.1-1.5-0.1-1.5-0.1c-0.2,0.1-0.8,0.9-1.2,1.3c-0.3,0.4-0.7,0.8-1,1.2c-2.8,3.2-6.6,5-9.9,6.6c-3.4,1.7-6.4,3.1-7.6,5.5
			c-0.8,1.5-0.9,3.7-1,6c0,0.8-0.1,1.5-0.2,2.3c-0.4,4.6-1.5,8.9-3.3,13c-0.4,1-1.2,2.5-2.7,3.6c-1.2,0.9-2.7,1.4-4.3,1.4
			c-2.2,0-4.2-0.9-5.4-1.7c-1.4-1-2.6-2-3.7-3.1c-1.3-1.2-3.1-2.8-3.9-2.8c-0.7,0.3-1.2,2.6-0.3,4.5c0.7,1.5,3,3.4,5,5.2
			c1.6,1.4,3.3,2.8,4.5,4.3c2.5,3,3.5,6.9,2.8,11.1c-0.9,5.3-4.3,10.7-9.2,14.7c1.4,2.9,2.9,5.7,4.5,8.4c2.4-1.4,4.4-3.1,4.9-5.2
			c0.2-0.7,0.2-1.6,0.3-2.6c0.1-2,0.3-4.4,1.6-6.8c1-1.7,2.3-2.9,3.3-3.9c0.4-0.3,0.7-0.6,1-1c0.5-0.6,1.1-1.3,1.6-2.2
			c1.2-1.7,2.5-3.6,4.6-5c4.8-3.4,12.2-2.9,18.1,1.1c2.2,1.5,4.1,3.3,5.9,5c1.6,1.5,3.1,2.9,4.7,4c0.5,0.3,1.1,0.7,1.6,1
			c3,1.9,6.7,4.2,8,8.7c1.3,4.3-0.5,8.2-1.9,11.3c-0.6,1.4-1.2,2.6-1.4,3.8c-0.3,1.5-0.2,3.3,0,5.3c0.2,2.2,0.4,4.6-0.1,7.1
			c-0.8,4.6-3.4,8.3-5.5,11.2L279.1,361.7z M346.3,251c0.9,0.9,1.7,1.9,2.3,2.9c0.3,0.6,0.7,1.2,1,1.9c0.3,0.6,0.6,1.2,0.9,1.6
			c1,1.4,3.3,2.2,5.6,2.9c0.2,0.1,0.4,0.1,0.6,0.2c0.1-0.2,0.1-0.4,0.1-0.7c0.1-4.1-5-7.6-9.7-8.5C346.9,251.1,346.6,251,346.3,251z
			"/>
		<path id="XMLID_383_" class="st10" d="M400.2,329.2c-0.5,0-1-0.1-1.4-0.2c-2-0.7-3.3-2.7-3-4.8c0.5-3.6,0.2-6.1-0.8-8.3
			c-0.5-1-1.2-2.1-2-3.3c-1.6-2.5-3.5-5.3-3.9-8.9c-0.3-2.9,0.5-5.4,1.1-7.6c0.1-0.5,0.3-0.9,0.4-1.4c1.5-5.5,1-11.4-1.2-16.6
			c0-0.1-0.1-0.2-0.1-0.2c0,0,0,0,0,0c-0.6-0.1-1.2-0.1-1.8-0.2c-1.8-0.2-3.9-0.4-5.9-1.1c-4.1-1.5-7-4.7-7.5-8.4
			c-0.3-1.9,0.2-3.8,1.5-5.5c2.1-2.8,6.2-4.6,9.3-5c2.5-0.3,4.9-0.1,7.1,0.1c0.8,0.1,1.6,0.2,2.5,0.2c3.6,0.2,7.5-0.4,10.9-1.6
			c1.2-0.4,2.4-0.9,3.6-1.5l0.9-0.4c1.3-0.5,2.7-0.5,3.9,0.2c1.2,0.7,2,1.8,2.3,3.2c1.1,6,1.6,12.2,1.6,18.3
			c0,17.9-4.7,35.5-13.6,51C403.3,328.4,401.8,329.2,400.2,329.2z M383.4,267.3c0.3,0.2,0.7,0.4,1.1,0.6c1,0.4,2.4,0.5,3.8,0.6
			c0.7,0.1,1.4,0.1,2.1,0.2c1.1,0.1,2.7,0.5,4.1,1.5c1.7,1.2,2.6,3,3.1,4.2c3,7,3.5,15,1.6,22.4c-0.1,0.5-0.3,1-0.4,1.6
			c-0.5,1.6-0.9,3.1-0.8,4.2c0.1,1.4,1.2,3,2.4,4.8c0.6,0.8,1.2,1.8,1.7,2.7c4.3-10.8,6.5-22.5,6.5-34.3c0-3.7-0.2-7.5-0.7-11.2
			c-4.5,1.6-9.3,2.2-14.1,2c-1-0.1-1.9-0.1-2.9-0.2c-1.7-0.2-3.4-0.4-5.1-0.1C385.1,266.5,384.1,266.9,383.4,267.3z"/>
		<path id="XMLID_380_" class="st10" d="M397.1,243.4c-4.3,0-8.9-0.4-12.8-2.9c-2.8-1.8-4-4.9-2.9-7.7c0.6-1.4,1.6-2.2,2.1-2.6
			c3.7-3,6.8-6.8,8.8-11c0.7-1.4,2.1-2.4,3.7-2.5c1.6-0.1,3.1,0.6,4,2c4,5.9,7.3,12.1,9.9,18.3c0.6,1.4,0.4,2.9-0.4,4.1
			c-0.8,1.2-2.1,2-3.6,2.1c-2.7,0.1-5.3,0.2-7.8,0.2L397.1,243.4z M392.5,234.2c1.3,0.2,2.8,0.3,4.5,0.3l1,0c0.3,0,0.6,0,0.9,0
			c-0.8-1.6-1.6-3.2-2.5-4.7C395.2,231.3,393.9,232.8,392.5,234.2z"/>
	</g>
</g>
</svg>
